<svg width="8540" height="2118" xmlns="http://www.w3.org/2000/svg" xmlns:xlink="http://www.w3.org/1999/xlink" overflow="hidden"><defs><clipPath id="clip0"><rect x="-2971" y="-2196" width="8540" height="2118"/></clipPath></defs><g clip-path="url(#clip0)" transform="translate(2971 2196)"><path d="M2821.29-1048.06 2821.29-922.88 2906.98-922.88C2935.91-922.88 2956.32-928.711 2968.19-940.372 2980.06-952.032 2985.99-967.698 2985.99-987.366 2985.99-1005.63 2980.12-1020.31 2968.37-1031.41 2956.62-1042.51 2936.04-1048.06 2906.61-1048.06ZM4440.75-1119.71C4423.19-1119.71 4408.48-1111.42 4396.61-1094.84 4384.74-1078.27 4378.8-1050.45 4378.8-1011.39 4378.8-974.862 4384.92-948.099 4397.16-931.099 4409.4-914.099 4424.55-905.6 4442.6-905.6 4461.9-905.6 4477.97-914.17 4490.83-931.31 4503.69-948.45 4510.12-976.408 4510.12-1015.18 4510.12-1050.31 4503.56-1076.51 4490.46-1093.79 4477.35-1111.07 4460.78-1119.71 4440.75-1119.71ZM949.224-1129.83C927.215-1129.83 909.038-1120.2 894.694-1100.95 880.351-1081.71 873.179-1052.41 873.179-1013.08 873.179-973.177 880.289-943.673 894.509-924.566 908.729-905.46 926.596-895.906 948.112-895.906 969.874-895.906 987.741-905.319 1001.71-924.145 1015.69-942.971 1022.67-973.177 1022.67-1014.76 1022.67-1053.54 1015.62-1082.41 1001.53-1101.38 987.432-1120.34 969.997-1129.83 949.224-1129.83ZM4962.03-1146.26C4938.04-1146.26 4918.88-1135.45 4904.53-1113.81 4895.38-1100.32 4889.57-1080.23 4887.1-1053.54L5035.85-1053.54C5032.88-1086.69 5025.03-1110.44 5012.29-1124.77 4999.56-1139.1 4982.8-1146.26 4962.03-1146.26ZM3743.54-1237.72 3894.52-1237.72 3894.52-790.115 3743.54-790.115ZM3231.16-1237.72 3382.88-1237.72 3382.88-991.581C3382.88-963.483 3387.46-943.533 3396.61-931.731 3405.76-919.93 3418.62-914.029 3435.19-914.029 3453.24-914.029 3468.02-921.897 3479.52-937.632 3491.02-953.367 3496.77-981.606 3496.77-1022.35L3496.77-1237.72 3647.74-1237.72 3647.74-790.115 3506.78-790.115 3506.78-862.609C3485.76-832.825 3464.55-811.611 3443.16-798.966 3421.77-786.322 3395.49-780 3364.33-780 3322.79-780 3290.21-794.119 3266.59-822.358 3242.97-850.597 3231.16-894.08 3231.16-952.805ZM-240.652-1237.72-89.6747-1237.72-89.6747-790.115-240.652-790.115ZM5495.92-1247.84C5518.18-1247.84 5542.54-1239.97 5569-1224.24L5522.26-1102.01C5504.45-1110.44 5490.36-1114.65 5479.97-1114.65 5460.19-1114.65 5444.85-1105.38 5433.97-1086.83 5418.39-1060.7 5410.6-1011.81 5410.6-940.161L5410.6-790.115 5258.88-790.115 5258.88-1237.72 5400.22-1237.72 5400.22-1164.39C5413.82-1196.14 5427.85-1217.98 5442.32-1229.93 5456.79-1241.87 5474.66-1247.84 5495.92-1247.84ZM4955.72-1247.84C5012.11-1247.84 5056.62-1238.14 5089.27-1218.76 5121.91-1199.37 5146.76-1171.27 5163.83-1134.46 5180.89-1097.65 5189.42-1049.74 5189.42-990.738L5189.42-971.35 4886.73-971.35C4889.45-943.814 4896-923.302 4906.39-909.815 4920.98-890.427 4940.02-880.733 4963.51-880.733 4978.35-880.733 4992.45-884.948 5005.8-893.377 5013.96-898.716 5022.74-908.129 5032.14-921.616L5180.89-906.021C5158.14-861.064 5130.69-828.821 5098.54-809.293 5066.39-789.764 5020.27-780 4960.17-780 4907.99-780 4866.94-788.359 4837.02-805.078 4807.1-821.796 4782.3-848.349 4762.64-884.737 4742.98-921.124 4733.15-963.904 4733.15-1013.08 4733.15-1083.04 4752.87-1139.66 4792.32-1182.93 4831.76-1226.2 4886.23-1247.84 4955.72-1247.84ZM1898.82-1247.84C1930.27-1247.84 1955.16-1241.52 1973.49-1228.87 1991.82-1216.23 2006.8-1197.4 2018.44-1172.39 2042.15-1201.62 2063.76-1221.5 2083.27-1232.03 2102.78-1242.57 2126.86-1247.84 2155.51-1247.84 2197.74-1247.84 2230.71-1233.58 2254.42-1205.06 2278.12-1176.54 2289.98-1131.93 2289.98-1071.24L2289.98-790.115 2138.63-790.115 2138.63-1045.11C2138.63-1065.34 2135.18-1080.37 2128.28-1090.21 2118.17-1105.66 2105.6-1113.39 2090.57-1113.39 2072.83-1113.39 2058.53-1106.08 2047.69-1091.47 2036.84-1076.86 2031.42-1053.4 2031.42-1021.08L2031.42-790.115 1880.07-790.115 1880.07-1036.68C1880.07-1056.35 1879.08-1069.69 1877.09-1076.72 1873.87-1087.96 1868.28-1097.02 1860.34-1103.9 1852.4-1110.79 1843.1-1114.23 1832.43-1114.23 1815.06-1114.23 1800.79-1106.78 1789.62-1091.89 1778.45-1077 1772.87-1052.55 1772.87-1018.56L1772.87-790.115 1621.52-790.115 1621.52-1237.72 1762.48-1237.72 1762.48-1172.39C1782.79-1199.65 1803.29-1219.04 1823.96-1230.56 1844.64-1242.08 1869.59-1247.84 1898.82-1247.84ZM1484.23-1247.84C1506.49-1247.84 1530.85-1239.97 1557.31-1224.24L1510.57-1102.01C1492.76-1110.44 1478.67-1114.65 1468.28-1114.65 1448.49-1114.65 1433.16-1105.38 1422.28-1086.83 1406.7-1060.7 1398.91-1011.81 1398.91-940.161L1398.91-790.115 1247.19-790.115 1247.19-1237.72 1388.52-1237.72 1388.52-1164.39C1402.13-1196.14 1416.16-1217.98 1430.63-1229.93 1445.09-1241.87 1462.96-1247.84 1484.23-1247.84ZM946.999-1247.84C1025.89-1247.84 1085.49-1221.85 1125.8-1169.87 1158.19-1128 1174.39-1076.44 1174.39-1015.18 1174.39-946.342 1154.3-889.935 1114.11-845.961 1073.93-801.987 1018.35-780 947.37-780 884.06-780 832.869-798.264 793.795-834.792 745.818-880.03 721.83-939.318 721.83-1012.66 721.83-1080.93 742.109-1137.2 782.666-1181.46 823.224-1225.71 878.001-1247.84 946.999-1247.84ZM-588.02-1247.84-647.413-1025.72-527.983-1025.72ZM2821.29-1282.82 2821.29-1165.65 2894.37-1165.65C2920.58-1165.65 2938.82-1170.78 2949.08-1181.03 2959.35-1191.29 2964.48-1206.11 2964.48-1225.5 2964.48-1243.48 2959.35-1257.53 2949.08-1267.65 2938.82-1277.76 2920.95-1282.82 2895.48-1282.82ZM4509.01-1408 4661.47-1408 4661.47-790.115 4520.13-790.115 4520.13-856.287C4500.35-828.188 4482.3-809.222 4465.98-799.388 4444.21-786.463 4419.98-780 4393.27-780 4339.6-780 4298.61-803.181 4270.3-849.544 4241.98-895.906 4227.82-952.243 4227.82-1018.56 4227.82-1092.74 4243.46-1149.49 4274.75-1188.83 4306.03-1228.17 4345.79-1247.84 4394.01-1247.84 4417.5-1247.84 4438.83-1243.34 4458-1234.35 4477.17-1225.36 4494.17-1211.87 4509.01-1193.89ZM3997.55-1408 4148.9-1408 4148.9-790.115 3997.55-790.115ZM3743.54-1408 3894.52-1408 3894.52-1291.25 3743.54-1291.25ZM2651.76-1408 2966.33-1408C3018.76-1408 3059.01-1393.25 3087.08-1363.75 3115.15-1334.24 3129.18-1297.71 3129.18-1254.16 3129.18-1217.63 3119.16-1186.3 3099.13-1160.17 3085.78-1142.75 3066.24-1128.98 3040.52-1118.87 3079.6-1108.19 3108.34-1089.86 3126.77-1063.86 3145.19-1037.87 3154.41-1005.21 3154.41-965.871 3154.41-933.839 3147.85-905.038 3134.74-879.468 3121.64-853.899 3103.71-833.668 3080.96-818.776 3066.86-809.503 3045.59-802.759 3017.15-798.545 2979.31-792.925 2954.21-790.115 2941.85-790.115L2651.76-790.115ZM273.308-1408 688.775-1408 688.775-1275.23 442.091-1275.23 442.091-1167.34 652.792-1167.34 652.792-1042.58 442.091-1042.58 442.091-790.115 273.308-790.115ZM-240.652-1408-89.6747-1408-89.6747-1291.25-240.652-1291.25ZM-677.611-1408-494.314-1408-289.959-790.115-465.924-790.115-493.125-892.113-683.911-892.113-710.417-790.115-882-790.115Z" fill="#2C2747" fill-rule="evenodd"/><path d="M-2720-1972.68C-2720-2018.7-2682.7-2056-2636.68-2056L-1405.32-2056C-1359.3-2056-1322-2018.7-1322-1972.68L-1322-161.321C-1322-115.304-1359.3-78-1405.32-78L-2636.68-78C-2682.7-78-2720-115.304-2720-161.321Z" fill="#8256EF" fill-rule="evenodd"/><path d="M-1402-183-2381.6-183-2610-346.868-2610-1951-1402-1951Z" fill="#51489A" fill-rule="evenodd"/><path d="M-1421-197-2399.79-197-2628-359.477-2628-1950-1421-1950Z" fill="#FFFFFF" fill-rule="evenodd"/><path d="M-2400-197-2628-359.429-2476.65-390Z" fill="#D9D9D9" fill-rule="evenodd"/><path d="M-2628-360-2382-183C-2382-183.001-2567.84-238.054-2628-360Z" fill="#51489A" fill-rule="evenodd"/><path d="M-1669-2006.64-1669-1918.5C-1669-1909.39-1676.38-1902-1685.49-1902L-2357.51-1902C-2366.62-1902-2374-1909.39-2374-1918.5L-2374-2006.64C-2374-2044.39-2343.43-2075-2305.73-2075L-1737.26-2075C-1719.69-2075-1703.65-2068.35-1691.55-2057.41-1677.7-2044.9-1669-2026.79-1669-2006.64Z" fill="#C9B6F8" fill-rule="evenodd"/><path d="M-2021.73-2161.27C-2045.66-2161.27-2065.05-2141.86-2065.05-2117.93-2065.05-2094-2045.66-2074.59-2021.73-2074.59-1997.81-2074.59-1978.41-2094-1978.41-2117.93-1978.41-2141.86-1997.81-2161.27-2021.73-2161.27ZM-2021.72-2196C-1949.77-2196-1890.05-2143.51-1878.79-2074.7L-1737.68-2074.7C-1720.12-2074.7-1704.09-2068.06-1692-2057.14L-2374-1935-2374-2006.46C-2374-2044.14-2343.45-2074.7-2305.77-2074.7L-2164.67-2074.7C-2153.42-2143.51-2093.69-2196-2021.72-2196Z" fill="#B69DF5" fill-rule="evenodd"/><path d="M-2341.68-1575-2545.32-1575C-2551.77-1575-2557-1580.23-2557-1586.68L-2557-1790.33C-2557-1796.77-2551.77-1802-2545.32-1802L-2341.68-1802C-2335.23-1802-2330-1796.77-2330-1790.33L-2330-1586.68C-2330-1580.23-2335.23-1575-2341.68-1575ZM-2533.65-1598.35-2353.35-1598.35-2353.35-1778.65-2533.65-1778.65-2533.65-1598.35Z" fill="#E0E0E0" fill-rule="evenodd"/><path d="M-2464.52-1589-2574-1716.1-2535.17-1749.65-2464.16-1667.22-2319.52-1832-2281-1798.08Z" fill="#51489A" fill-rule="evenodd"/><path d="M-2234-1787-1763-1787-1763-1745-2234-1745Z" fill="#E0E0E0" fill-rule="evenodd"/><path d="M-1730-1787-1476-1787-1476-1745-1730-1745Z" fill="#E0E0E0" fill-rule="evenodd"/><path d="M-2234-1703-1964-1703-1964-1661-2234-1661Z" fill="#E0E0E0" fill-rule="evenodd"/><path d="M-2234-1620-1641-1620-1641-1578-2234-1578Z" fill="#E0E0E0" fill-rule="evenodd"/><path d="M-1933-1703-1476-1703-1476-1661-1933-1661Z" fill="#E0E0E0" fill-rule="evenodd"/><path d="M-2367.2-637.651C-2515.76-781.34-2561.99-998.363-2484.95-1190.53-2479.3-1204.64-2463.28-1211.5-2449.16-1205.84-2435.01-1200.24-2428.19-1184.17-2433.85-1170.05-2502.51-998.725-2461.32-805.277-2328.92-677.213-2178.55-531.779-1942.51-509.473-1767.67-624.165-1754.96-632.496-1737.95-628.973-1729.55-616.245-1721.23-603.532-1724.77-586.461-1737.47-578.129-1933.66-449.45-2198.49-474.48-2367.2-637.651Z" fill="#C9B6F8" fill-rule="evenodd"/><path d="M-2378.48-1314.7C-2389.4-1325.26-2389.69-1342.69-2379.12-1353.62-2185.02-1554.3-1863.83-1559.66-1663.15-1365.56-1493.77-1201.73-1460.36-937.186-1583.7-736.505-1591.65-723.566-1608.6-719.512-1621.57-727.47-1634.49-735.402-1638.58-752.364-1630.61-765.347-1520.68-944.203-1550.46-1179.98-1701.43-1326-1880.29-1498.99-2166.55-1494.22-2339.56-1315.36-2350.12-1304.41-2367.56-1304.13-2378.48-1314.7Z" fill="#C9B6F8" fill-rule="evenodd"/><path d="M-2281.08-726.688C-2432.67-873.309-2436.71-1115.92-2290.09-1267.51-2143.47-1419.1-1900.87-1423.15-1749.27-1276.53-1597.68-1129.91-1593.63-887.298-1740.25-735.706-1886.87-584.113-2129.49-580.068-2281.08-726.688ZM-1787.56-1236.95C-1917.32-1362.46-2125.01-1359-2250.53-1229.23-2376.04-1099.46-2372.59-891.766-2242.82-766.25-2113.04-640.734-1905.35-644.188-1779.83-773.97-1654.31-903.743-1657.78-1111.42-1787.56-1236.95Z" fill="#C9B6F8" fill-rule="evenodd"/><path d="M-1556.06-965.783C-1559.57-969.186-1562.23-973.569-1563.55-978.65-1567.36-993.372-1558.51-1008.39-1543.8-1012.19L-1334.85-1066.26C-1325.58-1068.67-1315.7-1066.06-1308.82-1059.41L-1136.66-892.895C-1125.73-882.329-1125.44-864.905-1136.02-853.972-1146.58-843.049-1164.01-842.758-1174.93-853.323L-1335.99-1009.1-1530.01-958.905C-1539.63-956.41-1549.39-959.336-1556.06-965.783Z" fill="#C9B6F8" fill-rule="evenodd"/><path d="M-1201.57-918.961C-1166.13-955.601-1107.7-956.575-1071.06-921.137-1034.42-885.699-1033.45-827.269-1068.88-790.629-1104.32-753.99-1162.75-753.016-1199.39-788.453-1236.03-823.891-1237.01-882.322-1201.57-918.961Z" fill="#C9B6F8" fill-rule="evenodd"/><path d="M-2699.61-1414.68-2880.6-1589.73C-2891.52-1600.3-2891.82-1617.73-2881.25-1628.66-2870.68-1639.59-2853.25-1639.89-2842.32-1629.31L-2670.55-1463.18-2486.53-1482.16C-2478.45-1483-2470.42-1480.23-2464.58-1474.58L-2341.78-1355.81C-2330.86-1345.25-2330.56-1327.82-2341.14-1316.88-2351.7-1305.96-2369.14-1305.66-2380.07-1316.23L-2493.64-1426.08-2677.65-1407.09C-2685.73-1406.25-2693.76-1409.03-2699.61-1414.68Z" fill="#C9B6F8" fill-rule="evenodd"/><path d="M-2945.78-1692.09C-2911.79-1727.23-2855.74-1728.17-2820.59-1694.17-2785.45-1660.18-2784.51-1604.13-2818.51-1568.99-2852.5-1533.84-2908.55-1532.91-2943.69-1566.9-2978.84-1600.89-2979.77-1656.94-2945.78-1692.09Z" fill="#C9B6F8" fill-rule="evenodd"/><path d="M-1869.75-1178.47C-1773.18-1095.03-1762.52-949.105-1845.95-852.528-1929.39-755.952-2075.32-745.297-2171.89-828.731-2268.47-912.164-2279.12-1058.09-2195.69-1154.67-2112.26-1251.25-1966.33-1261.9-1869.75-1178.47Z" fill="#51489A" fill-rule="evenodd"/><path d="M-2016.56-1095.58C-2014.2-1095.35-2011.87-1095-2009.57-1094.54-2007.28-1094.09-2005.02-1093.52-2002.81-1092.85-2000.59-1092.19-1998.42-1091.41-1996.3-1090.55-1994.17-1089.68-1992.09-1088.72-1990.07-1087.67-1988.04-1086.61-1986.07-1085.47-1984.16-1084.24-1982.25-1083.01-1980.39-1081.7-1978.6-1080.31-1976.81-1078.91-1975.09-1077.44-1973.43-1075.89-1971.78-1074.35-1970.19-1072.73-1968.68-1071.04-1967.17-1069.35-1965.73-1067.59-1964.38-1065.78-1963.03-1063.96-1961.76-1062.08-1960.57-1060.14-1959.38-1058.2-1958.28-1056.2-1957.27-1054.16-1956.27-1052.12-1955.35-1050.02-1954.53-1047.88-1953.72-1045.74-1952.99-1043.55-1952.38-1041.33-1951.76-1039.1-1951.25-1036.84-1950.84-1034.54L-1948.11-1019.07-1945.39-1003.6-1942.66-988.136-1939.93-972.669-1937.2-957.202-1934.48-941.736-1931.75-926.268-1929.02-910.801-1926.3-895.334-1923.57-879.867-1920.84-864.4-1918.11-848.933-1915.39-833.466-1912.66-817.999-1909.93-802.532-1907.3-787.614-1907.7-790.308C-1907.83-791.386-1907.93-792.464-1908.01-793.536-1908.08-794.61-1908.12-795.68-1908.14-796.747-1908.15-797.815-1908.14-798.877-1908.1-799.936-1908.05-800.992-1907.98-802.047-1907.89-803.095-1907.79-804.145-1907.66-805.189-1907.51-806.226-1907.36-807.263-1907.18-808.294-1906.98-809.318-1906.78-810.342-1906.55-811.361-1906.29-812.369-1906.04-813.38-1905.76-814.384-1905.45-815.377-1905.15-816.37-1904.82-817.355-1904.46-818.332-1904.1-819.31-1903.73-820.276-1903.32-821.235-1902.92-822.191-1902.49-823.14-1902.04-824.078-1901.59-825.013-1901.12-825.94-1900.63-826.856-1900.13-827.773-1899.62-828.675-1899.08-829.568-1898.54-830.46-1897.98-831.339-1897.39-832.207-1896.81-833.074-1896.21-833.927-1895.59-834.769-1894.98-835.607-1894.35-836.43-1893.69-837.24-1893.04-838.05-1892.36-838.844-1891.67-839.622-1890.97-840.403-1890.25-841.165-1889.51-841.912-1888.78-842.658-1888.02-843.389-1887.24-844.103-1886.47-844.817-1885.67-845.513-1884.85-846.192-1884.04-846.871-1883.21-847.531-1882.35-848.173-1881.5-848.814-1880.63-849.441-1879.74-850.044-1878.86-850.648-1877.95-851.233-1877.03-851.799-1876.11-852.364-1875.18-852.909-1874.23-853.434-1873.27-853.959-1872.31-854.462-1871.33-854.945-1870.34-855.429-1869.35-855.889-1868.34-856.328-1867.33-856.768-1866.3-857.186-1865.26-857.579-1864.23-857.975-1863.18-858.346-1862.11-858.693-1861.05-859.039-1859.97-859.363-1858.89-859.663-1857.8-859.962-1856.7-860.239-1855.59-860.488-1854.48-860.739-1853.36-860.964-1852.23-861.163-1849.95-861.567-1847.66-861.856-1845.4-862.038-1843.14-862.219-1840.89-862.288-1838.66-862.255L-1838.66-862.255-1838.65-862.255C-1836.42-862.22-1834.22-862.08-1832.04-861.84-1829.86-861.6-1827.71-861.258-1825.6-860.819-1823.49-860.38-1821.41-859.844-1819.36-859.216-1817.32-858.587-1815.33-857.867-1813.37-857.056-1811.42-856.246-1809.52-855.347-1807.67-854.365-1805.81-853.383-1804.01-852.316-1802.28-851.167-1800.54-850.019-1798.86-848.791-1797.25-847.488-1795.63-846.183-1794.08-844.806-1792.61-843.352-1791.13-841.899-1789.73-840.376-1788.41-838.782-1787.08-837.192-1785.83-835.531-1784.67-833.808-1783.51-832.087-1782.44-830.298-1781.45-828.451-1780.46-826.605-1779.57-824.699-1778.77-822.738-1777.98-820.778-1777.28-818.762-1776.68-816.691-1776.09-814.625-1775.6-812.506-1775.21-810.34L-1774.7-807.399-1774.18-804.458-1773.66-801.517-1773.14-798.576-1772.62-795.634-1772.1-792.693-1771.58-789.752-1771.07-786.811-1770.55-783.87-1770.03-780.929-1769.51-777.988-1768.99-775.047-1768.47-772.106-1767.95-769.165-1767.44-766.224-1767.05-764.065-1767.42-766.51C-1767.55-767.588-1767.65-768.665-1767.72-769.738-1767.8-770.811-1767.84-771.882-1767.85-772.948-1767.87-774.017-1767.85-775.079-1767.81-776.138-1767.77-777.194-1767.7-778.248-1767.6-779.297-1767.51-780.346-1767.38-781.391-1767.23-782.427-1767.08-783.464-1766.9-784.496-1766.7-785.52-1766.49-786.543-1766.26-787.56-1766.01-788.571-1765.75-789.58-1765.47-790.583-1765.17-791.576-1764.86-792.569-1764.53-793.555-1764.18-794.531-1763.82-795.509-1763.44-796.475-1763.04-797.434-1762.64-798.391-1762.21-799.339-1761.76-800.277-1761.31-801.214-1760.84-802.138-1760.34-803.055-1759.85-803.971-1759.33-804.874-1758.79-805.767-1758.25-806.659-1757.69-807.538-1757.11-808.406-1756.53-809.274-1755.93-810.126-1755.3-810.968-1754.68-811.809-1754.03-812.637-1753.37-813.448-1752.71-814.263-1752.02-815.061-1751.32-815.843-1750.61-816.625-1749.89-817.393-1749.15-818.145-1748.41-818.897-1747.64-819.633-1746.86-820.353-1746.08-821.07-1745.29-821.773-1744.47-822.457L-1744.27-822.618-1741.95-824.474C-1741.1-825.123-1740.23-825.754-1739.34-826.365-1738.46-826.976-1737.55-827.568-1736.64-828.141-1735.72-828.714-1734.78-829.264-1733.83-829.797-1732.88-830.329-1731.91-830.839-1730.93-831.328-1729.95-831.817-1728.95-832.284-1727.94-832.729-1726.93-833.173-1725.9-833.596-1724.86-833.995-1723.82-834.394-1722.77-834.77-1721.7-835.123-1720.63-835.475-1719.55-835.805-1718.46-836.108-1717.36-836.411-1716.26-836.692-1715.13-836.946-1714.01-837.2-1712.88-837.428-1711.74-837.63-1709.46-838.031-1707.2-838.318-1704.94-838.496-1702.69-838.673-1700.45-838.741-1698.23-838.701-1696.01-838.662-1693.81-838.519-1691.64-838.274-1689.46-838.029-1687.32-837.681-1685.2-837.236-1683.09-836.792-1681.01-836.251-1678.97-835.616-1676.93-834.982-1674.93-834.254-1672.98-833.44-1671.02-832.625-1669.11-831.719-1667.26-830.73-1665.4-829.742-1663.6-828.669-1661.86-827.515-1660.11-826.363-1658.43-825.129-1656.81-823.82-1655.19-822.511-1653.64-821.124-1652.16-819.666-1650.67-818.208-1649.26-816.678-1647.93-815.084-1646.6-813.487-1645.35-811.824-1644.19-810.096-1643.02-808.367-1641.94-806.577-1640.95-804.728-1639.96-802.878-1639.06-800.97-1638.26-799.007-1637.46-797.043-1636.76-795.027-1636.16-792.958-1635.56-790.889-1635.07-788.77-1634.69-786.605L-1634.09-783.196-1633.49-779.787-1632.89-776.379-1632.28-772.971-1631.68-769.563-1631.08-766.154-1630.48-762.746-1629.88-759.338-1629.28-755.929-1628.68-752.521-1628.08-749.112-1627.48-745.704-1626.88-742.295-1626.27-738.887-1625.67-735.479-1625.21-732.836-1625.57-735.305C-1625.7-736.386-1625.81-737.461-1625.88-738.534-1625.95-739.606-1625.99-740.678-1626.01-741.744-1626.02-742.81-1626.01-743.873-1625.97-744.931-1625.92-745.99-1625.86-747.044-1625.76-748.09-1625.66-749.139-1625.54-750.181-1625.39-751.22-1625.24-752.259-1625.06-753.288-1624.86-754.312-1624.65-755.336-1624.42-756.355-1624.17-757.364-1623.91-758.372-1623.63-759.376-1623.32-760.369-1623.02-761.362-1622.69-762.349-1622.33-763.324-1621.98-764.301-1621.6-765.268-1621.2-766.227-1620.79-767.186-1620.37-768.131-1619.92-769.069-1619.47-770.007-1619-770.934-1618.5-771.848-1618.01-772.764-1617.49-773.667-1616.95-774.559-1616.41-775.451-1615.85-776.33-1615.27-777.199-1614.69-778.067-1614.08-778.919-1613.46-779.76-1612.84-780.601-1612.19-781.427-1611.53-782.241-1610.86-783.055-1610.18-783.851-1609.48-784.635-1608.77-785.417-1608.05-786.186-1607.31-786.938-1606.56-787.69-1605.8-788.425-1605.02-789.143-1604.24-789.862-1603.44-790.563-1602.63-791.248-1601.81-791.932-1600.98-792.6-1600.13-793.249-1599.27-793.898-1598.41-794.528-1597.52-795.139-1596.64-795.75-1595.73-796.342-1594.81-796.915-1593.89-797.488-1592.96-798.039-1592.01-798.571-1591.06-799.103-1590.09-799.613-1589.11-800.102-1588.13-800.591-1587.13-801.058-1586.12-801.503-1585.11-801.948-1584.08-802.371-1583.04-802.77-1582-803.168-1580.95-803.545-1579.88-803.899-1578.81-804.252-1577.73-804.579-1576.63-804.884-1575.54-805.188-1574.43-805.468-1573.31-805.722-1572.19-805.976-1571.06-806.205-1569.91-806.407-1567.64-806.808-1565.37-807.095-1563.12-807.272-1560.87-807.45-1558.63-807.517-1556.41-807.478-1554.19-807.439-1551.99-807.296-1549.81-807.05-1547.64-806.806-1545.49-806.458-1543.38-806.013-1541.27-805.569-1539.19-805.029-1537.15-804.393-1535.11-803.76-1533.11-803.031-1531.15-802.216-1529.2-801.401-1527.29-800.496-1525.44-799.507-1523.58-798.518-1521.78-797.445-1520.03-796.292-1518.29-795.14-1516.6-793.906-1514.99-792.594-1513.37-791.285-1511.81-789.899-1510.33-788.44-1508.85-786.982-1507.44-785.452-1506.11-783.858-1504.78-782.261-1503.53-780.596-1502.37-778.87-1501.2-777.143-1500.12-775.351-1499.13-773.503-1498.14-771.652-1497.24-769.744-1496.44-767.781-1495.64-765.82-1494.94-763.801-1494.34-761.732-1493.74-759.663-1493.25-757.544-1492.87-755.378L-1492.87-755.372-1490.47-741.766-1490.47-741.759-1488.07-728.154-1488.07-728.147-1485.67-714.542-1485.67-714.534-1483.27-700.929-1483.27-700.923-1480.87-687.317-1480.87-687.31-1478.47-673.705-1478.47-673.698-1476.07-660.093-1476.07-660.086-1473.67-646.48-1473.67-646.473-1471.27-632.869-1471.27-632.861-1468.87-619.256-1468.87-619.249-1466.47-605.644-1466.46-605.637-1464.07-592.032-1464.06-592.025-1461.67-578.419-1461.66-578.412-1459.27-564.808-1459.26-564.8-1456.87-551.195-1456.86-551.188-1454.47-537.582-1454.46-537.576C-1453.82-533.939-1453.24-530.297-1452.73-526.649-1452.21-523.001-1451.76-519.348-1451.37-515.69-1450.97-512.032-1450.65-508.373-1450.38-504.708-1450.11-501.045-1449.91-497.379-1449.76-493.711-1449.62-490.043-1449.54-486.377-1449.52-482.709-1449.5-479.042-1449.54-475.375-1449.65-471.708-1449.75-468.044-1449.92-464.38-1450.14-460.718-1450.37-457.059-1450.66-453.4-1451.01-449.749-1451.36-446.097-1451.77-442.448-1452.24-438.807-1452.71-435.165-1453.25-431.53-1453.84-427.904-1454.44-424.277-1455.09-420.656-1455.81-417.045-1456.53-413.433-1457.31-409.831-1458.14-406.24-1458.98-402.648-1459.88-399.066-1460.84-395.497-1461.8-391.926-1462.82-388.369-1463.9-384.825-1464.99-381.282-1466.13-377.749-1467.33-374.234-1468.53-370.718-1469.79-367.215-1471.12-363.729-1472.44-360.229-1473.69-356.716-1474.9-353.188-1476.09-349.66-1477.23-346.116-1478.31-342.562L-1480.06-336.394-1495.63-307.586C-1528.63-253.645-1574.81-211.076-1632.63-185.933-1748.28-135.649-1883.14-166.975-1993.39-255.873L-1994.17-256.62-1994.29-255.443-2003.55-264.197C-2008.18-268.367-2012.93-272.43-2017.8-276.388-2022.66-280.342-2027.64-284.19-2032.73-287.924-2037.82-291.659-2043.02-295.279-2048.33-298.782L-2062.67-308.232-2077.01-317.682-2091.35-327.133-2105.68-336.583-2120.02-346.034-2134.36-355.484-2148.7-364.934-2163.04-374.385-2177.38-383.835-2191.72-393.285-2206.06-402.736-2220.4-412.186-2234.73-421.637-2249.07-431.087-2263.41-440.538-2277.75-449.988C-2278.92-450.76-2280.06-451.556-2281.18-452.372-2282.29-453.191-2283.38-454.029-2284.43-454.889-2285.49-455.749-2286.52-456.629-2287.52-457.531-2288.53-458.43-2289.5-459.352-2290.44-460.292-2291.39-461.23-2292.3-462.187-2293.19-463.163-2294.07-464.139-2294.93-465.13-2295.76-466.138-2296.59-467.146-2297.38-468.172-2298.15-469.213-2298.92-470.254-2299.66-471.31-2300.37-472.381-2301.08-473.451-2301.76-474.538-2302.41-475.633-2303.06-476.732-2303.68-477.843-2304.27-478.967-2304.86-480.09-2305.42-481.227-2305.94-482.372-2306.47-483.518-2306.97-484.675-2307.44-485.843-2307.9-487.01-2308.34-488.188-2308.75-489.373-2309.15-490.559-2309.52-491.754-2309.87-492.959-2310.21-494.162-2310.52-495.372-2310.8-496.589-2311.08-497.807-2311.33-499.03-2311.55-500.261L-2311.55-500.264-2311.55-500.268C-2311.77-501.511-2311.96-502.759-2312.11-504.011-2312.27-505.263-2312.39-506.518-2312.48-507.776-2312.57-509.034-2312.63-510.293-2312.66-511.555-2312.69-512.817-2312.68-514.079-2312.64-515.343-2312.6-516.607-2312.53-517.872-2312.43-519.134-2312.33-520.397-2312.19-521.661-2312.03-522.921-2311.86-524.18-2311.66-525.438-2311.43-526.694-2311.2-527.95-2310.93-529.203-2310.64-530.449-2310.34-531.695-2310.01-532.942-2309.65-534.18-2309.29-535.417-2308.89-536.651-2308.46-537.878-2308.04-539.106-2307.57-540.326-2307.08-541.538-2306.59-542.75-2306.06-543.958-2305.5-545.154-2304.94-546.352-2304.35-547.54-2303.73-548.718-2303.1-549.897-2302.44-551.065-2301.75-552.223-2301.06-553.382-2300.34-554.53-2299.58-555.663-2298.82-556.797-2298.03-557.922-2297.21-559.032-2295.54-561.283-2293.77-563.429-2291.91-565.469-2290.05-567.508-2288.1-569.439-2286.08-571.261-2284.05-573.084-2281.94-574.797-2279.77-576.399-2277.59-578-2275.35-579.494-2273.04-580.873-2270.74-582.253-2268.38-583.521-2265.96-584.673-2263.55-585.827-2261.09-586.865-2258.59-587.791-2256.08-588.714-2253.54-589.524-2250.97-590.215-2248.4-590.905-2245.8-591.479-2243.18-591.936-2240.55-592.391-2237.91-592.728-2235.26-592.945-2232.61-593.161-2229.95-593.256-2227.29-593.232-2224.62-593.205-2221.96-593.058-2219.31-592.784-2216.66-592.511-2214.01-592.116-2211.39-591.596-2208.76-591.076-2206.16-590.429-2203.58-589.656-2201-588.883-2198.46-587.982-2195.95-586.955-2193.44-585.924-2190.97-584.767-2188.55-583.48-2186.13-582.192-2183.76-580.774-2181.45-579.224L-2170.18-571.647-2158.91-564.069-2147.64-556.491-2136.37-548.914-2125.1-541.336-2113.83-533.759-2102.56-526.181-2091.29-518.604-2080.02-511.026-2068.75-503.448-2057.48-495.87-2046.21-488.293-2034.94-480.715-2023.67-473.138-2012.4-465.56-2001.13-457.982-2007.23-492.617-2007.23-492.624-2013.34-527.256-2013.34-527.263-2019.45-561.897-2019.45-561.905-2025.56-596.539-2025.56-596.546-2031.67-631.18-2031.67-631.187-2037.77-665.822-2037.77-665.828-2043.88-700.462-2043.88-700.469-2049.99-735.104-2049.99-735.111-2056.1-769.745-2056.1-769.752-2062.21-804.385-2062.21-804.392-2068.31-839.026-2068.31-839.032-2074.42-873.667-2074.42-873.674-2080.53-908.308-2080.53-908.315-2086.63-942.902-2092.74-977.544-2098.85-1012.19C-2099.06-1013.39-2099.24-1014.59-2099.38-1015.79-2099.53-1016.99-2099.64-1018.18-2099.72-1019.37-2099.8-1020.57-2099.86-1021.76-2099.87-1022.94-2099.89-1024.13-2099.88-1025.3-2099.83-1026.48-2099.79-1027.65-2099.72-1028.82-2099.61-1029.99-2099.5-1031.15-2099.37-1032.31-2099.2-1033.46-2099.04-1034.61-2098.84-1035.76-2098.62-1036.9-2098.39-1038.03-2098.14-1039.16-2097.85-1040.29-2097.57-1041.41-2097.26-1042.52-2096.92-1043.63-2096.58-1044.73-2096.21-1045.82-2095.82-1046.91-2095.42-1047.99-2095-1049.07-2094.55-1050.13-2094.1-1051.2-2093.62-1052.25-2093.11-1053.29-2092.61-1054.34-2092.08-1055.37-2091.52-1056.39-2090.96-1057.41-2090.38-1058.41-2089.77-1059.41-2089.16-1060.4-2088.53-1061.38-2087.87-1062.35-2087.21-1063.31-2086.52-1064.27-2085.82-1065.2-2085.07-1066.23-2084.28-1067.24-2083.48-1068.23-2082.67-1069.22-2081.83-1070.19-2080.96-1071.14-2080.1-1072.08-2079.2-1073.01-2078.28-1073.92-2077.36-1074.82-2076.42-1075.71-2075.44-1076.57-2074.47-1077.43-2073.47-1078.26-2072.45-1079.08-2071.43-1079.89-2070.38-1080.68-2069.31-1081.44-2068.24-1082.2-2067.14-1082.94-2066.03-1083.65-2064.91-1084.36-2063.77-1085.04-2062.6-1085.7-2061.44-1086.36-2060.26-1086.98-2059.05-1087.59-2057.85-1088.19-2056.62-1088.76-2055.38-1089.3-2054.13-1089.84-2052.87-1090.35-2051.58-1090.83-2050.3-1091.31-2049-1091.76-2047.68-1092.18-2046.36-1092.6-2045.02-1092.99-2043.67-1093.34-2042.31-1093.69-2040.94-1094.01-2039.55-1094.3-2038.17-1094.58-2036.76-1094.83-2035.35-1095.05-2033.93-1095.27-2032.5-1095.45-2031.05-1095.59-2028.59-1095.83-2026.15-1095.95-2023.73-1095.95-2021.31-1095.94-2018.92-1095.82-2016.56-1095.58Z" fill="#2C2747" fill-rule="evenodd"/></g></svg>